<svg width="620" height="189" viewBox="0 0 620 189" fill="none" xmlns="http://www.w3.org/2000/svg">
<g clip-path="url(#clip0_301_11003)">
<path fill-rule="evenodd" clip-rule="evenodd" d="M567.658 162.777C561.805 162.777 557.076 161.577 551.838 158.78C551.598 158.657 551.415 158.444 551.328 158.188C551.241 157.931 551.257 157.65 551.373 157.405L556.394 146.533C556.457 146.4 556.545 146.281 556.654 146.182C556.763 146.084 556.89 146.009 557.029 145.961C557.316 145.876 557.626 145.904 557.893 146.041C560.702 147.563 563.454 148.328 566.066 148.328C569.288 148.328 571.655 147.284 574.055 142.02L552.876 91.9257H539.049V142.025C539.046 142.312 538.931 142.587 538.727 142.789C538.524 142.991 538.249 143.103 537.964 143.102H523.154C523.013 143.103 522.873 143.075 522.742 143.022C522.611 142.968 522.492 142.889 522.392 142.789C522.292 142.689 522.212 142.57 522.157 142.439C522.103 142.308 522.074 142.167 522.074 142.025V91.9257H514.962C514.821 91.927 514.681 91.9002 514.55 91.847C514.419 91.7937 514.3 91.7151 514.199 91.6155C514.098 91.5159 514.018 91.3973 513.963 91.2665C513.908 91.1357 513.879 90.9952 513.877 90.8531V78.2421C513.881 77.9555 513.997 77.682 514.2 77.4812C514.404 77.2803 514.678 77.1683 514.962 77.1695H522.074V74.0747C522.074 59.7107 529.307 52.1129 542.985 52.1129C548.602 52.1129 552.36 53.0012 555.295 53.8611C555.515 53.9262 555.707 54.0607 555.844 54.2445C555.981 54.4284 556.056 54.6519 556.056 54.8817V67.1903C556.057 67.3621 556.017 67.5316 555.94 67.6851C555.863 67.8385 555.752 67.9717 555.615 68.0739C555.472 68.1705 555.31 68.233 555.14 68.2568C554.97 68.2805 554.796 68.2648 554.633 68.2109C551.857 67.299 549.377 66.6895 546.291 66.6895C541.111 66.6895 538.804 69.3402 538.804 75.2795V77.3018H564.107C564.553 77.3018 564.962 77.5712 565.112 77.987L582.416 122.506L598.207 78.02C598.282 77.8077 598.42 77.6242 598.604 77.4953C598.788 77.3665 599.007 77.2988 599.231 77.3018H614.651C615.013 77.3018 615.337 77.4719 615.543 77.7602C615.64 77.9041 615.701 78.0696 615.721 78.2424C615.741 78.4152 615.718 78.5902 615.656 78.7524L589.964 144.236C584.633 157.75 578.588 162.777 567.658 162.777ZM498.561 69.1654C492.699 69.1654 487.931 64.4782 487.931 58.6901C487.931 52.8972 492.699 48.2147 498.561 48.2147C504.422 48.2147 509.181 52.8972 509.181 58.6901C509.181 64.4782 504.422 69.1654 498.561 69.1654ZM465.734 91.9257V122.123C465.734 126.886 467.857 129.012 472.605 129.012C475.686 129.012 478.444 128.36 481.295 126.947C481.461 126.865 481.644 126.826 481.829 126.835C482.014 126.843 482.193 126.898 482.351 126.995C482.508 127.089 482.637 127.223 482.727 127.383C482.817 127.543 482.864 127.723 482.863 127.907V139.866C482.862 140.054 482.81 140.238 482.713 140.399C482.616 140.561 482.478 140.693 482.314 140.782C478.162 143.112 473.756 144.194 468.444 144.194C455.381 144.194 448.759 137.536 448.759 124.415V91.9257H441.633C441.493 91.9263 441.353 91.8991 441.223 91.8455C441.093 91.792 440.975 91.7131 440.875 91.6135C440.775 91.5139 440.695 91.3955 440.641 91.265C440.587 91.1346 440.558 90.9946 440.558 90.8531V78.3083C440.558 77.7129 441.042 77.2357 441.633 77.2357H448.759V60.7927C448.759 60.2068 449.243 59.7296 449.844 59.7296H464.649C465.25 59.7296 465.734 60.2068 465.734 60.7927V77.2357H482.027C482.624 77.2357 483.108 77.7129 483.108 78.3083V90.8531C483.107 90.995 483.079 91.1354 483.024 91.2661C482.969 91.3969 482.889 91.5155 482.789 91.6152C482.689 91.7149 482.57 91.7936 482.439 91.8469C482.308 91.9002 482.168 91.927 482.027 91.9257H465.734ZM403.691 144.553C383.87 144.553 368.342 129.56 368.342 110.415C368.342 91.0563 383.978 75.8985 403.936 75.8985C423.827 75.8985 439.407 90.9524 439.407 110.169C439.407 129.452 423.724 144.553 403.691 144.553ZM403.691 90.839C393.039 90.839 385.317 98.966 385.317 110.169C385.317 121.32 393.32 129.74 403.936 129.74C414.654 129.74 422.432 121.613 422.432 110.415C422.432 99.2495 414.377 90.839 403.691 90.839ZM332.532 144.435C324.195 144.435 317.352 141.378 311.711 135.131V161.341C311.709 161.482 311.68 161.622 311.625 161.753C311.57 161.883 311.489 162.001 311.388 162.1C311.287 162.199 311.168 162.276 311.037 162.329C310.906 162.381 310.766 162.406 310.626 162.404H295.821C295.68 162.406 295.54 162.381 295.409 162.329C295.278 162.276 295.159 162.199 295.058 162.1C294.957 162.001 294.877 161.883 294.821 161.753C294.766 161.622 294.737 161.482 294.736 161.341V78.3083C294.736 77.7129 295.219 77.2357 295.821 77.2357H310.626C311.227 77.2357 311.711 77.7129 311.711 78.3083V85.7738C317.352 79.1399 324.195 75.8985 332.532 75.8985C348.032 75.8985 363.725 87.6638 363.725 110.169C363.725 132.665 348.032 144.435 332.532 144.435ZM329.108 90.7208C318.977 90.7208 311.339 99.0746 311.339 110.169C311.339 121.259 318.977 129.617 329.108 129.617C339.347 129.617 346.501 121.618 346.501 110.169C346.501 98.8951 339.183 90.7208 329.108 90.7208ZM260.626 91.9871C280.786 96.8161 289.001 104.329 289.001 117.89C289.001 133.936 276.558 144.312 257.32 144.312C243.895 144.381 230.916 139.469 220.866 130.515C220.761 130.426 220.675 130.317 220.612 130.194C220.55 130.071 220.512 129.937 220.502 129.799C220.491 129.661 220.508 129.523 220.551 129.392C220.595 129.261 220.663 129.14 220.754 129.036L229.809 118.409C229.902 118.3 230.016 118.211 230.143 118.146C230.27 118.081 230.409 118.042 230.552 118.031C230.84 118.011 231.125 118.1 231.35 118.282C240.162 125.809 248.034 129.012 257.686 129.012C266.38 129.012 271.777 125.313 271.777 119.34C271.777 113.954 269.109 110.949 253.276 107.348C234.69 102.911 223.929 97.1705 223.929 80.9495C223.929 65.8248 236.404 55.2597 254.257 55.2597C266.399 55.2597 276.798 58.8082 286.018 66.113C286.469 66.4674 286.558 67.1053 286.229 67.5636L278.155 78.7949C277.983 79.0311 277.725 79.189 277.437 79.2344C277.148 79.2779 276.854 79.2049 276.619 79.0312C268.869 73.3328 261.472 70.564 254.013 70.564C246.319 70.564 241.148 74.207 241.148 79.6313C241.148 85.3627 244.088 88.0985 260.626 91.9871ZM191.365 100.79C191.294 101.834 191.229 102.874 191.125 103.904C191.064 104.518 190.975 105.123 190.904 105.727C190.792 106.658 190.684 107.584 190.547 108.501C190.449 109.144 190.331 109.781 190.219 110.419C190.068 111.293 189.923 112.168 189.749 113.032C189.617 113.684 189.467 114.327 189.322 114.974C189.134 115.815 188.946 116.652 188.734 117.483C188.57 118.135 188.387 118.778 188.208 119.425C187.983 120.238 187.757 121.051 187.509 121.859C187.068 123.299 186.592 124.728 186.081 126.144C185.341 128.183 184.534 130.197 183.662 132.183C183.054 133.544 182.421 134.894 181.764 136.232C181.388 136.983 180.999 137.72 180.609 138.458C180.299 139.034 179.993 139.606 179.674 140.177C179.259 140.912 178.834 141.641 178.401 142.365C178.072 142.913 177.748 143.461 177.41 144.005C176.954 144.737 176.48 145.455 176.001 146.173C175.658 146.688 175.325 147.208 174.972 147.714C174.465 148.451 173.934 149.169 173.404 149.892C173.056 150.365 172.722 150.837 172.365 151.305C171.783 152.07 171.177 152.812 170.567 153.559C170.242 153.96 169.928 154.367 169.599 154.764C168.852 155.652 168.077 156.516 167.302 157.381C167.086 157.613 166.889 157.858 166.673 158.09C165.663 159.181 164.634 160.249 163.573 161.293C163.385 161.482 163.178 161.662 162.986 161.851C162.122 162.695 161.242 163.522 160.346 164.332C159.965 164.677 159.571 164.998 159.19 165.333C158.458 165.971 157.73 166.609 156.978 167.223C156.523 167.597 156.058 167.951 155.597 168.315C154.893 168.868 154.193 169.42 153.474 169.959C152.972 170.332 152.46 170.687 151.952 171.051L150.36 172.17C150.511 172.062 150.675 171.972 150.83 171.868C150.651 171.991 150.468 172.095 150.29 172.218C150.139 172.322 149.994 172.43 149.844 172.53C149.303 172.893 148.759 173.243 148.214 173.593C147.287 174.194 146.349 174.778 145.4 175.346L145.071 175.535C145.142 175.497 145.217 175.459 145.283 175.416L144.301 175.988C143.606 176.395 142.911 176.791 142.206 177.179L141.281 177.67C140.741 177.959 140.191 178.242 139.642 178.521L139.355 178.663C138.932 178.875 138.519 179.093 138.092 179.3C137.519 179.574 136.946 179.849 136.363 180.118L135.894 180.326C135.377 180.562 134.86 180.794 134.339 181.02L134.113 181.12C133.658 181.318 133.193 181.507 132.732 181.701C131.93 182.035 131.122 182.354 130.309 182.66C129.759 182.868 129.214 183.071 128.665 183.269L127.956 183.529C127.35 183.742 126.734 183.945 126.119 184.144C125.617 184.309 125.114 184.474 124.607 184.63L124.405 184.692C123.86 184.862 123.315 185.022 122.766 185.178L121.197 185.622C120.525 185.802 119.858 185.986 119.182 186.156L118.839 186.232L117.993 186.44C118.144 186.407 118.285 186.36 118.435 186.326L117.458 186.549C117.632 186.506 117.815 186.482 117.993 186.44C117.58 186.539 117.162 186.615 116.749 186.709L116.688 186.723C116.016 186.87 115.349 187.026 114.673 187.158C113.973 187.295 113.268 187.413 112.564 187.531C112.15 187.602 111.742 187.692 111.328 187.758C111.521 187.725 111.709 187.678 111.901 187.645L110.882 187.815C111.032 187.791 111.183 187.782 111.328 187.758L110.638 187.857L110.084 187.952C109.149 188.089 108.205 188.193 107.261 188.306C106.65 188.377 106.04 188.467 105.42 188.524L105.279 188.543H105.189C104.936 188.566 104.673 188.576 104.419 188.599C103.837 188.651 103.254 188.684 102.672 188.727C100.694 188.869 98.7029 188.958 96.6926 188.977C96.5141 188.977 96.3451 189.001 96.1713 189.001H95.4526C95.2835 189.001 95.1238 188.982 94.9547 188.977C92.8984 188.955 90.8433 188.868 88.7923 188.717C88.2334 188.675 87.6697 188.642 87.1108 188.595C86.8854 188.571 86.6552 188.566 86.425 188.543H86.3405C84.6675 188.371 82.9994 188.154 81.3382 187.89C81.5778 187.928 81.822 187.947 82.0616 187.98C81.4651 187.89 80.8544 187.839 80.2626 187.744L79.4172 187.593C79.6426 187.631 79.8634 187.692 80.0888 187.73C79.6849 187.664 79.2904 187.569 78.8864 187.498L78.7455 187.475C78.4966 187.432 78.257 187.371 78.0128 187.328C76.4222 187.043 74.8389 186.718 73.2641 186.355L73.7151 186.445L72.9729 186.275L73.2641 186.355C72.5831 186.194 71.9208 185.991 71.2444 185.811L71.3525 185.84C71.282 185.826 71.2163 185.802 71.1458 185.783L71.2444 185.811C69.8776 185.457 68.5108 185.103 67.1675 184.692L66.9984 184.644C66.8152 184.588 66.6367 184.522 66.4535 184.46L66.369 184.432C65.6128 184.191 64.8707 183.912 64.1191 183.652L65.0961 183.988C64.5794 183.813 64.0675 183.629 63.5555 183.444L64.1191 183.652C62.9684 183.255 61.8176 182.858 60.6904 182.419L60.122 182.197C60.0422 182.164 59.967 182.126 59.8872 182.098C59.1144 181.785 58.3456 181.462 57.581 181.129C58.0835 181.346 58.5908 181.55 59.0934 181.757C58.3466 181.45 57.6044 181.124 56.867 180.803C57.1066 180.907 57.3414 181.025 57.581 181.129C56.7919 180.789 55.9934 180.458 55.2137 180.094L55.0446 180.023C54.9413 179.976 54.8332 179.934 54.7299 179.882C54.3588 179.711 54.0066 179.504 53.6402 179.329C52.8887 178.96 52.1372 178.601 51.395 178.218C52.0291 178.544 52.6773 178.847 53.3208 179.163C52.3994 178.711 51.4849 178.245 50.5778 177.765C50.8549 177.911 51.1179 178.072 51.395 178.218C50.7704 177.892 50.1504 177.571 49.5351 177.236L49.3096 177.117C49.0794 176.995 48.854 176.858 48.6285 176.73C48.3326 176.569 48.0555 176.385 47.7643 176.215L47.5154 176.073L47.6422 176.144C46.6229 175.558 45.6178 174.963 44.6267 174.344C44.9226 174.528 45.2044 174.736 45.505 174.92C45.0213 174.627 44.5516 174.316 44.0772 174.018L44.0349 173.99L43.3116 173.531C42.9452 173.295 42.5976 173.035 42.236 172.794C41.461 172.279 40.6672 171.792 39.9063 171.254C40.4746 171.655 41.0805 172.01 41.6582 172.397C40.6437 171.717 39.6197 171.051 38.6334 170.328L38.84 170.484C38.7696 170.436 38.7038 170.38 38.6334 170.328C37.7128 169.647 36.8157 168.938 35.9185 168.23L35.8763 168.197L35.8669 168.192C35.4723 167.875 35.0684 167.573 34.6738 167.252L34.6691 167.247L34.5141 167.115C33.4244 166.217 32.3441 165.3 31.2967 164.355L31.2122 164.284L31.1464 164.223C30.7613 163.878 30.4043 163.514 30.0285 163.16C29.2864 162.47 28.5443 161.78 27.8257 161.067L27.7364 160.982C27.4405 160.689 27.1587 160.382 26.8675 160.084C27.1023 160.325 27.3231 160.58 27.5626 160.816C27.3231 160.575 27.0976 160.32 26.8581 160.074L26.4729 159.668C25.82 158.988 25.1625 158.317 24.5284 157.617L24.519 157.603C24.1573 157.206 23.805 156.8 23.4528 156.398L23.1803 156.082C22.2239 154.983 21.2906 153.865 20.381 152.727C20.287 152.614 20.1978 152.491 20.1085 152.373C19.225 151.258 18.3668 150.124 17.5346 148.971C17.4313 148.824 17.3373 148.673 17.234 148.531C16.7061 147.784 16.1878 147.029 15.6793 146.268C15.421 145.88 15.1532 145.493 14.8996 145.096C14.7822 144.917 14.6788 144.732 14.5661 144.553C14.0879 143.801 13.6213 143.042 13.1664 142.275C13.11 142.171 13.0443 142.072 12.9832 141.973C12.8094 141.685 12.631 141.401 12.4619 141.108C12.335 140.891 12.2223 140.664 12.1002 140.442C11.6602 139.657 11.2312 138.867 10.8132 138.07C10.6113 137.697 10.3999 137.333 10.2073 136.955C10.0852 136.719 9.97717 136.478 9.85974 136.241C9.44345 135.405 9.04257 134.56 8.65732 133.709C8.50232 133.383 8.33793 133.057 8.18762 132.726L7.94338 132.154C7.50656 131.172 7.09793 130.175 6.69868 129.173L6.3699 128.374L6.23368 128.001C5.77031 126.793 5.33339 125.576 4.92323 124.349L4.76353 123.895L4.71656 123.749C3.55524 120.239 2.60474 116.662 1.8702 113.037L1.83262 112.848C1.75747 112.475 1.7058 112.097 1.63535 111.728C1.42846 110.657 1.24055 109.583 1.07171 108.506L1.00126 108.09C0.926107 107.561 0.879138 107.022 0.81338 106.488C0.682335 105.52 0.568025 104.55 0.470501 103.578C0.461107 103.483 0.44232 103.389 0.437623 103.289C0.423532 103.162 0.428229 103.029 0.418835 102.897C0.16006 100.112 0.0268429 97.3168 0.0195923 94.5197C0.0195923 93.3054 0.066562 92.0958 0.113532 90.8909C0.141713 90.2058 0.169895 89.5207 0.207471 88.8356C0.263835 87.9236 0.338986 87.0212 0.418835 86.1187C0.367168 86.6668 0.296714 87.2149 0.259138 87.7677C0.296714 87.2102 0.371865 86.6621 0.418835 86.1045C0.479895 85.4241 0.540956 84.7484 0.616107 84.0728C0.719441 83.175 0.836865 82.2773 0.963683 81.3842C1.05762 80.7133 1.15156 80.0471 1.25959 79.3856V79.3808C1.4052 78.4973 1.56959 77.6184 1.73868 76.7443V76.7348C1.8655 76.0781 1.99232 75.4213 2.13323 74.7692V74.7645C2.32444 73.8954 2.528 73.029 2.74383 72.1658C2.89883 71.5232 3.05853 70.8758 3.23232 70.238V70.2285C3.46247 69.378 3.70671 68.5417 3.96035 67.7054L3.96505 67.6865C4.15293 67.0533 4.3408 66.4154 4.54277 65.7917L4.54747 65.7776C4.8152 64.9507 5.10171 64.1333 5.39293 63.3158L5.40232 63.2922C5.62308 62.6732 5.83914 62.0543 6.07399 61.44L6.07868 61.4258C6.38399 60.6179 6.70808 59.8241 7.03217 59.0303L7.04626 58.9972C7.2952 58.3924 7.54414 57.7829 7.80247 57.1828L7.81187 57.1686C8.16367 56.3766 8.52537 55.589 8.89687 54.8061C9.17399 54.2155 9.44641 53.6201 9.73762 53.039L9.74702 53.0201C10.1228 52.2593 10.5173 51.5128 10.9166 50.7662L10.94 50.719C11.2454 50.1473 11.546 49.5661 11.8654 48.9991L11.8747 48.9802C12.2834 48.2478 12.7155 47.5249 13.1429 46.802L13.1758 46.75C13.5093 46.1924 13.8381 45.6302 14.181 45.0773L14.195 45.0584C14.6366 44.3497 15.0969 43.6551 15.5572 42.9605L15.5947 42.8991C15.9564 42.3605 16.3087 41.8171 16.6797 41.2832L16.6938 41.2595C17.1635 40.5791 17.6567 39.9129 18.1452 39.242L18.1969 39.1758C18.582 38.6513 18.9578 38.1269 19.3523 37.6118L19.3711 37.5882C19.869 36.9362 20.3904 36.2983 20.9117 35.6557L20.9681 35.5848C21.3767 35.0792 21.7807 34.5737 22.1987 34.0775C22.2035 34.0686 22.2099 34.0606 22.2175 34.0539C22.7435 33.4302 23.2931 32.816 23.8379 32.2064L23.9084 32.1308C24.3405 31.6442 24.7632 31.1575 25.2047 30.6803L25.2282 30.6614C25.7825 30.0613 26.3602 29.4801 26.9285 28.8989L27.0084 28.8186C27.464 28.3556 27.9102 27.8878 28.3752 27.4342C28.3828 27.4275 28.3892 27.4195 28.394 27.4106L28.5631 27.2405L28.4034 27.4058C28.906 26.9144 29.4273 26.4419 29.9393 25.96C29.5166 26.3569 29.0797 26.7396 28.6617 27.1412C29.1549 26.664 29.6716 26.2057 30.1741 25.7379L30.2634 25.6576C30.7425 25.2134 31.2122 24.7646 31.696 24.3346L31.7194 24.3157C32.2408 23.8479 32.7857 23.4038 33.3211 22.9454C32.8702 23.3282 32.4099 23.692 31.9684 24.0842C32.4944 23.6211 33.0393 23.1817 33.57 22.7328C33.6035 22.7033 33.638 22.675 33.6734 22.6478C34.1666 22.232 34.655 21.8067 35.1576 21.4004L35.1811 21.3815L35.4253 21.1783L35.1858 21.3767C35.7307 20.9373 36.2896 20.5168 36.8438 20.0915C36.3741 20.4554 35.8903 20.805 35.4253 21.1783C35.9749 20.7341 36.5479 20.3136 37.1116 19.8836L37.2196 19.7986C37.7363 19.4064 38.2388 19.0095 38.7602 18.6268L38.779 18.6126L39.0185 18.4331L38.7931 18.6032C39.3614 18.1874 39.9391 17.7952 40.5122 17.3936C40.019 17.7432 39.507 18.074 39.0185 18.4331C39.5963 18.0078 40.1975 17.6109 40.7893 17.2046L40.9114 17.1195C41.4375 16.751 41.9588 16.3777 42.4943 16.0233L42.5131 16.0091L42.7432 15.8532L42.5366 15.995C43.1237 15.6075 43.7296 15.2437 44.3214 14.8657C43.8001 15.1964 43.2599 15.513 42.7432 15.8532C43.3538 15.4516 43.9785 15.0783 44.5985 14.6909L44.7347 14.6105C45.2749 14.2703 45.8104 13.9207 46.3599 13.5947L46.3787 13.5852C46.4505 13.5368 46.5242 13.4911 46.5994 13.4482L46.4116 13.5663C47.0222 13.2025 47.6469 12.8623 48.2669 12.5126C47.7126 12.8245 47.1443 13.1222 46.5994 13.4482C47.2335 13.0702 47.8911 12.7205 48.5346 12.3614L48.6849 12.2764C49.2391 11.9693 49.784 11.648 50.3429 11.3456C50.35 11.3443 50.3565 11.341 50.3617 11.3361L50.5731 11.2227L50.404 11.3172C51.0428 10.977 51.7004 10.6604 52.3438 10.3344C51.7567 10.6321 51.1555 10.9109 50.5731 11.2227C51.2401 10.8683 51.9211 10.547 52.5928 10.2068C52.6489 10.1829 52.7038 10.1561 52.7572 10.1265C53.3208 9.84774 53.8751 9.55479 54.4481 9.28547L54.4622 9.27602L54.6641 9.17679L54.5185 9.25239C55.1902 8.93582 55.876 8.64287 56.557 8.34047C55.9276 8.62397 55.2888 8.88384 54.6641 9.17679C55.3593 8.85077 56.0685 8.55782 56.7731 8.24597L56.9516 8.16564C57.5199 7.91522 58.0835 7.65062 58.6613 7.41437L58.6754 7.40492C58.7388 7.38015 58.8015 7.35336 58.8632 7.32459L58.7411 7.38129C59.455 7.08362 60.1831 6.81902 60.9064 6.54024C60.2254 6.80012 59.5396 7.05054 58.8632 7.32459C59.5866 7.02692 60.3287 6.76232 61.0614 6.47882L61.2634 6.40322C61.8364 6.18114 62.4001 5.94962 62.9825 5.73699H62.9919C63.0503 5.71211 63.1099 5.69003 63.1704 5.67084L63.067 5.70864C63.842 5.42987 64.6358 5.18417 65.4202 4.92429C64.6687 5.17472 63.9125 5.40624 63.1704 5.67084C63.9266 5.40152 64.6969 5.16527 65.4578 4.91012L65.6926 4.83452C66.2657 4.64552 66.8246 4.44234 67.3976 4.26752H67.407L67.5714 4.21554L67.4916 4.24389C68.3088 3.99347 69.1402 3.77612 69.9622 3.54932L69.8354 3.58712L70.1641 3.49262L70.4507 3.41229C70.9391 3.27999 71.4182 3.13352 71.9114 3.00594H71.9161L72.0617 2.96814L72.0147 2.98232C72.8602 2.76969 73.7197 2.59014 74.5746 2.40114L74.274 2.46729C74.7061 2.36807 75.1335 2.26412 75.5704 2.17434L75.9837 2.07984C76.1622 2.04204 76.336 1.99479 76.5097 1.96172L76.5144 1.95699L76.6413 1.93809L76.6225 1.94282C77.5055 1.76327 78.4026 1.62152 79.2997 1.47032L78.8207 1.55064C79.6191 1.41362 80.4082 1.25297 81.2067 1.13484L81.2114 1.13012L81.2913 1.12067H81.3101C82.024 1.01199 82.752 0.941115 83.4707 0.846615C82.9869 0.90804 82.4937 0.96474 82.0099 1.03089C82.7238 0.931665 83.4472 0.846615 84.1658 0.761565L83.4707 0.846615C84.302 0.742665 85.1287 0.619816 85.9694 0.534766H85.9741L86.0728 0.525315H86.0775C86.7867 0.45444 87.5054 0.416641 88.2193 0.364666L87.5194 0.41664C88.1113 0.36939 88.6984 0.32214 89.2902 0.28434L88.2193 0.364666C89.0788 0.298516 89.9337 0.213465 90.7979 0.17094H90.8026L90.9107 0.166215C91.6246 0.128415 92.3479 0.128415 93.0619 0.109515L92.6626 0.118965C93.7101 0.0858905 94.7528 0.0433655 95.8096 0.0433655C148.716 0.0433655 191.6 42.3368 191.6 94.5197C191.6 96.1026 191.553 97.676 191.477 99.24C191.449 99.7598 191.398 100.275 191.365 100.79ZM40.2351 124.741C40.9631 127.907 44.1711 129.891 47.3838 129.163C80.7229 121.651 109.036 124.712 131.525 138.273C134.344 139.965 138.021 139.1 139.74 136.308C140.148 135.648 140.421 134.914 140.542 134.147C140.663 133.38 140.63 132.596 140.445 131.843C140.26 131.089 139.928 130.38 139.466 129.757C139.005 129.135 138.424 128.612 137.758 128.218C112.507 112.994 81.2114 109.455 44.7207 117.686C43.9623 117.847 43.2432 118.158 42.6056 118.601C41.9679 119.044 41.4244 119.61 41.0068 120.267C40.5892 120.924 40.3059 121.658 40.1734 122.426C40.0409 123.194 40.0618 123.981 40.2351 124.741ZM36.4117 97.0949C37.6141 100.984 41.785 103.176 45.7399 101.999C76.1951 92.8849 115.448 97.402 141.187 113.013C144.696 115.135 149.299 114.053 151.459 110.594C151.971 109.77 152.314 108.851 152.468 107.892C152.622 106.932 152.583 105.952 152.355 105.007C152.126 104.063 151.712 103.174 151.138 102.393C150.563 101.612 149.839 100.954 149.007 100.459C119.435 82.5466 76.1904 77.4956 41.3952 87.9095C40.4653 88.1784 39.5978 88.6303 38.8428 89.239C38.0878 89.8477 37.4603 90.601 36.9968 91.4553C36.5333 92.3097 36.2429 93.2481 36.1425 94.2161C36.042 95.1842 36.1336 96.1626 36.4117 97.0949ZM161.614 68.5984C126.067 47.7848 69.8213 45.8286 35.9843 55.9637C34.8683 56.2852 33.827 56.8266 32.9209 57.5567C32.0149 58.2867 31.2622 59.1907 30.7067 60.2161C30.1511 61.2414 29.8038 62.3677 29.685 63.5293C29.5662 64.6909 29.6781 65.8648 30.0144 66.9824C31.447 71.6555 36.4493 74.2873 41.1885 72.8698C70.662 64.0482 121.591 65.7161 152.474 83.7987C154.516 84.9979 156.944 85.3454 159.237 84.767C161.531 84.1887 163.509 82.7303 164.747 80.7038C165.347 79.7061 165.742 78.5977 165.909 77.444C166.075 76.2903 166.011 75.1146 165.719 73.9863C165.427 72.858 164.913 71.8 164.208 70.8746C163.503 69.9493 162.621 69.1753 161.614 68.5984ZM95.556 0.0433655H95.8096C94.889 0.0433655 93.9778 0.0858905 93.0619 0.109515C93.8932 0.0858905 94.7199 0.0433655 95.556 0.0433655ZM505.888 77.2357C506.489 77.2357 506.973 77.7129 506.973 78.3083V142.025C506.97 142.312 506.855 142.587 506.652 142.789C506.448 142.991 506.174 143.103 505.888 143.102H491.078C490.793 143.103 490.518 142.991 490.315 142.789C490.111 142.587 489.996 142.312 489.993 142.025V78.3083C489.993 77.7129 490.482 77.2357 491.078 77.2357H505.888ZM610.593 122.879C615.877 122.879 619.987 127.122 619.987 132.272C619.981 134.785 618.983 137.193 617.212 138.966C615.442 140.739 613.044 141.732 610.546 141.727C609.314 141.736 608.092 141.499 606.951 141.03C605.81 140.562 604.773 139.87 603.899 138.996C603.025 138.122 602.332 137.082 601.86 135.937C601.387 134.792 601.145 133.564 601.147 132.324C601.147 127.169 605.313 122.879 610.593 122.879ZM610.546 140.782C611.66 140.793 612.764 140.58 613.796 140.156C614.827 139.732 615.764 139.106 616.551 138.314C617.339 137.521 617.962 136.579 618.383 135.542C618.804 134.504 619.016 133.393 619.005 132.272C619.018 131.158 618.809 130.052 618.39 129.02C617.972 127.988 617.353 127.05 616.569 126.262C615.785 125.474 614.853 124.852 613.827 124.431C612.8 124.011 611.701 123.801 610.593 123.815C605.783 123.815 602.138 127.637 602.138 132.324C602.138 137.012 605.755 140.782 610.546 140.782ZM614.966 130.245C614.966 131.857 614.031 132.849 612.674 133.241L615.332 136.96H613.092L610.701 133.544H608.644V136.96H606.765V127.099H611.166C613.458 127.099 614.966 128.27 614.966 130.245ZM608.644 128.785V131.909H611.091C612.312 131.909 613.04 131.313 613.04 130.345C613.04 129.334 612.312 128.785 611.091 128.785H608.644Z" fill="#1DB954"/>
</g>
<defs>
<clipPath id="clip0_301_11003">
<rect width="620" height="189" fill="white"/>
</clipPath>
</defs>
</svg>